<?xml version="1.0" encoding="iso-8859-1"?>
<!-- Generator: Adobe Illustrator 19.0.0, SVG Export Plug-In . SVG Version: 6.00 Build 0)  -->
<svg version="1.1" id="Layer_1" xmlns="http://www.w3.org/2000/svg" xmlns:xlink="http://www.w3.org/1999/xlink" x="0px" y="0px"
	 viewBox="0 0 512 512" style="enable-background:new 0 0 512 512;" xml:space="preserve">
<path style="fill:#707487;" d="M262.039,2.392c-3.396-3.19-8.685-3.19-12.081,0c-93.273,87.541-99.653,229.615-99.882,235.623
	c-0.086,2.397,0.802,4.724,2.465,6.448c1.664,1.732,3.957,2.707,6.358,2.707h194.202c2.401,0,4.694-0.974,6.358-2.707
	c1.664-1.725,2.552-4.052,2.465-6.448C361.696,232.008,355.321,89.933,262.039,2.392z"/>
<path style="fill:#65687A;" d="M262.039,2.392c-1.698-1.594-3.867-2.391-6.039-2.391v247.169h97.101
	c2.401,0,4.694-0.974,6.358-2.707c1.664-1.725,2.552-4.052,2.465-6.448C361.696,232.008,355.321,89.933,262.039,2.392z"/>
<path style="fill:#5B5D6E;" d="M256,185.388L256,185.388c-9.751,0-17.655,7.904-17.655,17.655v105.928h35.309V203.043
	C273.655,193.292,265.75,185.388,256,185.388z"/>
<path style="fill:#707487;" d="M282.482,317.798h-52.964v-8.827c0-4.875,3.952-8.827,8.827-8.827h35.309
	c4.875,0,8.827,3.952,8.827,8.827V317.798z"/>
<path style="fill:#9c6508;" d="M229.518,317.798v167.72C229.518,500.144,241.374,512,256,512c14.626,0,26.482-11.856,26.482-26.482
	v-167.72H229.518z M256,494.346c-4.875,0-8.827-3.952-8.827-8.827s3.952-8.827,8.827-8.827c4.875,0,8.827,3.952,8.827,8.827
	S260.875,494.346,256,494.346z"/>
<g>
</g>
<g>
</g>
<g>
</g>
<g>
</g>
<g>
</g>
<g>
</g>
<g>
</g>
<g>
</g>
<g>
</g>
<g>
</g>
<g>
</g>
<g>
</g>
<g>
</g>
<g>
</g>
<g>
</g>
</svg>
